<svg xmlns="http://www.w3.org/2000/svg" xmlns:xlink="http://www.w3.org/1999/xlink" style="enable-background:new 0 0 512 512;" version="1.1" xml:space="preserve" width="512" height="512"><rect id="backgroundrect" width="100%" height="100%" x="0" y="0" fill="none" stroke="none"/><g class="currentLayer"><title>Layer 1</title><g id="close" class="selected" fill="#e84141" fill-opacity="1"><g id="svg_1" fill="#e84141" fill-opacity="1"><circle cx="255.99998474121094" cy="256.00001525878906" r="253.4399871826172" id="svg_2" fill="#e84141" fill-opacity="1"/><path d="M350.0189933242798,144.06602193450928 l17.521,17.522 c6.047,6.047 6.047,15.852 0,21.9 L183.60699332427978,367.41902193450926 c-6.047,6.048 -15.852,6.047 -21.9,0 l-17.521,-17.522 c-6.047,-6.047 -6.047,-15.852 0,-21.9 l183.932,-183.933 C334.1659933242798,138.01802193450928 343.9709933242798,138.01802193450928 350.0189933242798,144.06602193450928 z" style="" id="svg_3" fill="#e84141" fill-opacity="1"/><path d="M367.5399933242798,349.8990219345093 l-17.522,17.522 c-6.047,6.047 -15.852,6.047 -21.9,0 L144.1859933242798,183.48802193450928 c-6.047,-6.047 -6.047,-15.852 0,-21.9 l17.522,-17.522 c6.047,-6.047 15.852,-6.047 21.9,0 L367.5399933242798,327.9990219345093 C373.5879933242798,334.0470219345093 373.5879933242798,343.85202193450925 367.5399933242798,349.8990219345093 z" style="" id="svg_4" fill="#e84141" fill-opacity="1"/></g></g><g id="Layer_1"/><path fill="#ffffff" fill-opacity="1" stroke="none" stroke-opacity="1" stroke-width="1" stroke-dasharray="none" stroke-linejoin="miter" stroke-linecap="butt" stroke-dashoffset="" fill-rule="nonzero" opacity="1" marker-start="" marker-mid="" marker-end="" id="svg_5" d="M161.43480090980006,145.13042020820285 " style="color: rgb(0, 0, 0);"/><path fill="#ffffff" fill-opacity="1" stroke="none" stroke-opacity="1" stroke-width="1" stroke-dasharray="none" stroke-linejoin="miter" stroke-linecap="butt" stroke-dashoffset="" fill-rule="nonzero" opacity="1" marker-start="" marker-mid="" marker-end="" id="svg_6" d="M172.3043659300115,251.65215740627536 " style="color: rgb(0, 0, 0);"/><path fill="#ffffff" stroke-dashoffset="" fill-rule="nonzero" marker-start="" marker-mid="" marker-end="" id="svg_7" d="M245.61465814871752,308.3805199246127 L281.836829638156,276.027851378043 L211.80302890905097,276.027851378043 L141.769381508673,276.027851378043 L141.769381508673,256.0000170684437 L141.769381508673,235.9721622863873 L210.99960171207226,235.9721622863873 C249.07616915888758,235.9721622863873 280.22976825041735,234.95705607324356 280.22976825041735,233.71636387747128 C280.22976825041735,232.47569897830482 265.071605961392,217.91699233181993 246.5450031995291,201.3637021550536 L212.86013081853196,171.26680472079494 L243.99524613201328,171.26680472079494 L275.1302464489491,171.26680472079494 L322.6804439580553,213.67398730060506 L370.2306184678525,256.08114940796213 L322.58922869832094,298.40717235164794 L274.94785426166214,340.73319529533296 L242.17015129437982,340.73319529533296 L209.3923716627338,340.73319529533296 L245.6146428158449,308.38051310046075 L245.61465814871752,308.3805199246127 z" style="color: rgb(0, 0, 0);" class="" transform="rotate(179.62152099609375 255.99999999999997,255.99999999999997) "/></g></svg>