<svg xmlns="http://www.w3.org/2000/svg" xmlns:xlink="http://www.w3.org/1999/xlink" enable-background="new 0 0 512 512" height="512" version="1.1" width="512" xml:space="preserve"><rect id="backgroundrect" width="100%" height="100%" x="0" y="0" fill="none" stroke="none"/><g class="currentLayer"><title>Layer 1</title><g id="Layer_12" class="selected" fill="#919191" fill-opacity="1"><g id="svg_1" fill="#919191" fill-opacity="1"><path d="M438.121,17.334c-11.253-7.139-69.747,64.736-94.439,103.567L227.041,304.309l40.702,25.875L384.374,146.79    C409.074,107.958,449.365,24.482,438.121,17.334z" id="svg_2" fill="#919191" fill-opacity="1"/><path d="M176.203,411.83l15.715,10.013l70.194-82.803l-40.683-25.883L176.203,411.83z M229.156,334.444    c12.064-10.044-20.328,38.104-31.741,59.735c-2.303,5.925-3.712,9.798-3.712,9.798c-0.527-1.018,1-4.677,3.712-9.798    C204,377.296,218.108,343.653,229.156,334.444z" id="svg_3" fill="#919191" fill-opacity="1"/><path d="M170.037,417.951c-17.321-0.838-35.668,11.012-42.789,26.146c-12.564,26.709-111.527,51.062-9.94,51.062    c68.274,0,71.166-50.659,71.112-65.571L170.037,417.951z M102.547,488.056c-42.254-9.155,27.029,6.157,62.322-15.759    C164.87,472.297,144.828,497.203,102.547,488.056z" id="svg_4" fill="#919191" fill-opacity="1"/></g></g></g></svg>