<svg xmlns="http://www.w3.org/2000/svg" xmlns:xlink="http://www.w3.org/1999/xlink" style="enable-background:new 0 0 512 512;" version="1.1" xml:space="preserve" width="512" height="512"><rect id="backgroundrect" width="100%" height="100%" x="0" y="0" fill="none" stroke="none"/><g class="currentLayer"><title>Layer 1</title><g id="close" class="" fill="#e84141" fill-opacity="1"><g id="svg_1" fill="#e84141" fill-opacity="1"><circle cx="256.00001525878906" cy="253.82608032226562" r="253.4399871826172" id="svg_2" fill="#e84141" fill-opacity="1"/><path d="M350.01900858306885,141.89208699798584 l17.521,17.522 c6.047,6.047 6.047,15.852 0,21.9 L183.60700858306885,365.2450869979858 c-6.047,6.048 -15.852,6.047 -21.9,0 l-17.521,-17.522 c-6.047,-6.047 -6.047,-15.852 0,-21.9 l183.932,-183.933 C334.16600858306884,135.84408699798584 343.97100858306885,135.84408699798584 350.01900858306885,141.89208699798584 z" style="" id="svg_3" fill="#e84141" fill-opacity="1"/><path d="M367.54000858306887,347.72508699798584 l-17.522,17.522 c-6.047,6.047 -15.852,6.047 -21.9,0 L144.18600858306885,181.31408699798584 c-6.047,-6.047 -6.047,-15.852 0,-21.9 l17.522,-17.522 c6.047,-6.047 15.852,-6.047 21.9,0 L367.54000858306887,325.82508699798586 C373.58800858306887,331.87308699798587 373.58800858306887,341.6780869979858 367.54000858306887,347.72508699798584 z" style="" id="svg_4" fill="#e84141" fill-opacity="1"/></g></g><g id="Layer_1"/><path fill="#ffffff" fill-opacity="1" stroke="none" stroke-opacity="1" stroke-width="1" stroke-dasharray="none" stroke-linejoin="miter" stroke-linecap="butt" stroke-dashoffset="" fill-rule="nonzero" opacity="1" marker-start="" marker-mid="" marker-end="" id="svg_5" d="M161.43480090980006,145.13042020820285 " style="color: rgb(0, 0, 0);"/><path fill="#ffffff" fill-opacity="1" stroke="none" stroke-opacity="1" stroke-width="1" stroke-dasharray="none" stroke-linejoin="miter" stroke-linecap="butt" stroke-dashoffset="" fill-rule="nonzero" opacity="1" marker-start="" marker-mid="" marker-end="" id="svg_6" d="M172.3043659300115,251.65215740627536 " style="color: rgb(0, 0, 0);"/><path fill="#ffffff" stroke-dashoffset="" fill-rule="nonzero" marker-start="" marker-mid="" marker-end="" id="svg_7" d="M146.2173978182887,199.45076710156454 L199.45076715994003,146.2173977599158 L255.99974989493882,202.76591706494588 L312.5487326299406,146.2173977599158 L365.7826021817113,199.45076710156454 L309.23360473464743,255.99974983656347 L365.7826021817113,312.5487325715658 L312.5487326299406,365.7826021233386 L255.99974989493882,309.23360467627475 L199.45076715994003,365.7826021233386 L146.2173978182887,312.5487325715658 L202.76591712332117,255.99974983656347 L146.2173978182887,199.45076710156454 z" style="color: rgb(0, 0, 0);" class=""/></g></svg>