<?xml version="1.0" encoding="utf-8"?>
<!-- Generator: Adobe Illustrator 18.0.0, SVG Export Plug-In . SVG Version: 6.00 Build 0)  -->
<!DOCTYPE svg PUBLIC "-//W3C//DTD SVG 1.1//EN" "http://www.w3.org/Graphics/SVG/1.1/DTD/svg11.dtd">
<svg version="1.1" xmlns="http://www.w3.org/2000/svg" xmlns:xlink="http://www.w3.org/1999/xlink" x="0px" y="0px"
	 viewBox="0 0 1378 1109.6" enable-background="new 0 0 1378 1109.6" xml:space="preserve">
<path id="Facebook_3_" fill="#43619C" d="M386.7,435.6c0,1.1-0.9,2-2,2h-9.4v-14.2h4.8l0.7-5.5h-5.5v-3.5c0-1.6,0.4-2.7,2.7-2.7
		l2.9,0v-5c-0.5-0.1-2.2-0.2-4.3-0.2c-4.2,0-7.1,2.6-7.1,7.3v4.1h-4.8v5.5h4.8v14.2h-17.6c-1.1,0-2-0.9-2-2V403c0-1.1,0.9-2,2-2
		h32.7c1.1,0,2,0.9,2,2V435.6z"/>
	<g id="Google_x2B__1_">
		<path fill="#F24033" d="M231.4,417.2v5.1c0,0,4.9,0,6.9,0c-1.1,3.3-2.8,5.1-6.9,5.1c-4.2,0-7.5-3.4-7.5-7.6s3.3-7.6,7.5-7.6
			c2.2,0,3.7,0.8,5,1.9c1.1-1.1,1-1.2,3.6-3.7c-2.3-2.1-5.3-3.3-8.6-3.3c-7.1,0-12.8,5.7-12.8,12.8c0,7.1,5.7,12.8,12.8,12.8
			c10.6,0,13.2-9.2,12.3-15.4H231.4z"/>
		<polygon fill="#F24033" points="254.5,417.5 254.5,413 251.4,413 251.4,417.5 246.8,417.5 246.8,420.6 251.4,420.6 251.4,425.2 
			254.5,425.2 254.5,420.6 259,420.6 259,417.5 		"/>
	</g>
</svg>