<svg xmlns="http://www.w3.org/2000/svg" xmlns:sketch="http://www.bohemiancoding.com/sketch/ns" xmlns:xlink="http://www.w3.org/1999/xlink" height="20" version="1.1" width="20"><rect id="backgroundrect" width="100%" height="100%" x="0" y="0" fill="none" stroke="none"/><title/><desc/><defs/><g class="currentLayer"><title>Layer 1</title><g fill="#919191" fill-rule="evenodd" id="Page-1" stroke="none" stroke-width="1" class="selected" fill-opacity="1"><g fill="#919191" id="Icons-AV" fill-opacity="1"><g id="games" fill="#919191" fill-opacity="1"><path d="M13,5.5 L13,0 L7,0 L7,5.5 L10,8.5 L13,5.5 L13,5.5 zM5.5,7 L0,7 L0,13 L5.5,13 L8.5,10 L5.5,7 L5.5,7 zM7,14.5 L7,20 L13,20 L13,14.5 L10,11.5 L7,14.5 L7,14.5 zM14.5,7 L11.5,10 L14.5,13 L20,13 L20,7 L14.5,7 L14.5,7 z" id="Shape" fill="#919191" fill-opacity="1"/></g></g></g></g></svg>