<svg xmlns="http://www.w3.org/2000/svg" xmlns:se="http://svg-edit.googlecode.com" xmlns:xlink="http://www.w3.org/1999/xlink" xmlns:dc="http://purl.org/dc/elements/1.1/" xmlns:cc="http://creativecommons.org/ns#" xmlns:rdf="http://www.w3.org/1999/02/22-rdf-syntax-ns#" xmlns:inkscape="http://www.inkscape.org/namespaces/inkscape" width="170" height="140">                                    <title>my vector image</title>                                    <!-- Created with Vector Paint - http://www.vectorpaint.yaks.com/ https://chrome.google.com/webstore/detail/hnbpdiengicdefcjecjbnjnoifekhgdo -->                                    <rect id="backgroundrect" width="100%" height="100%" x="0" y="0" fill="#FFFFFF" stroke="#ffffff" class="selected" stroke-opacity="1" opacity="0"/>                                <g class="currentLayer"><title>Layer 1</title><path fill="#67e767" stroke="#41e841" stroke-width="2" stroke-linejoin="round" stroke-dashoffset="" fill-rule="nonzero" marker-start="" marker-mid="" marker-end="" id="svg_1" d="M168.52551686977165,43.36491639623907 C168.50064023141272,29.633012037321834 157.38078289724797,18.506935543567494 143.65509769788162,18.488278064798095 L143.65509769788162,18.482058905208163 L67.42685869073432,18.482058905208163 C64.28618310135505,8.394582061819875 54.920128769565,1.0186587965434626 43.762956477939895,1.000001317773922 L25.882872677187265,1.000001317773922 C12.150968318269747,1.0124396369535873 1.0248918244765832,12.144735290297888 1.000015186195128,25.876639649254287 L1.000015186195128,114.11407581093277 C1.0248918244765832,127.83354185070948 12.150968318269747,138.9596183444243 25.882872677187265,138.98449498278376 L143.66131685743227,138.98449498278376 C157.3745637376976,138.9596183444243 168.50685939096314,127.83354185070948 168.53173602932293,114.11407581093277 L168.53173602932293,43.36491639623907 L168.52551686977165,43.36491639623907 zM25.882872677187265,13.43210132394401 L43.762956477939895,13.43210132394401 C50.26819740161869,13.407224685623731 55.68508539829185,18.618880416067128 56.09554993075096,25.09924470138685 L56.45626118656878,30.926597230518553 L143.66131685743227,30.926597230518553 C150.4588582814808,30.939035549698275 156.08097854442218,36.56115581260033 156.093416863602,43.36491639623907 L156.093416863602,46.44340038975918 C152.41789355012418,44.29779033369533 148.20752251246836,42.97932850210023 143.65509769788162,42.973109342549606 L25.876653517636612,42.973109342549606 C21.324228702892583,42.97932850210023 17.107638505765124,44.30400949324593 13.438334351916467,46.44961954934905 L13.438334351916467,25.870420489664184 C13.456991830646814,19.066659906025905 19.079112093509423,13.44453964312359 25.882872677187265,13.43210132394401 zM143.65509769788162,126.5461758170241 L25.882872677187265,126.5461758170241 C19.085331253138065,126.53373749788341 13.463210990196842,120.89917891580183 13.438334351916467,114.10785665130356 L13.438334351916467,67.84974767399075 L13.444553511466665,67.84974767399075 C13.456991830646814,61.03976793076217 19.079112093509423,55.41764766782066 25.882872677187265,55.4052093486801 L143.66131685743227,55.4052093486801 C150.4588582814808,55.41764766782066 156.0436635869617,61.008672132852155 156.09963602315236,67.78755607817058 L156.09963602315236,114.10163749171386 C156.07475938479342,120.91161723498169 150.45263912193047,126.53373749788341 143.65509769788162,126.5461758170241 z" style="color: rgb(0, 0, 0);" class="" fill-opacity="1" stroke-opacity="1"/></g></svg>